# Blender v2.74 (sub 0) OBJ File: ''
# www.blender.org
mtllib book-closed.mtl
o 魔導書(閉)_mesh_魔導書(閉)
v 0.422760 0.017280 0.594000
v 0.422760 0.004180 0.594000
v 0.422760 0.017280 -0.594000
v 0.422760 0.004180 -0.594000
v -0.423960 0.018920 0.594000
v -0.413500 0.023040 -0.594000
v -0.423960 0.018920 -0.594000
v -0.384560 0.017280 0.594000
v -0.387980 0.004180 0.594000
v -0.384560 0.017280 -0.594000
v -0.387980 0.004180 -0.594000
v -0.406920 0.014380 0.594000
v -0.403500 0.025620 0.594000
v -0.406920 0.014380 -0.594000
v -0.403500 0.025620 -0.594000
v -0.416680 0.013000 0.594000
v -0.413140 0.025220 0.594000
v -0.416680 0.013000 -0.594000
v -0.425280 0.031140 0.594000
v -0.413520 0.031020 0.594000
v -0.425280 0.031140 -0.594000
v -0.413520 0.031020 -0.594000
v 0.422760 0.301280 0.594000
v 0.422760 0.314400 0.594000
v 0.422760 0.301280 -0.594000
v 0.422760 0.314400 -0.594000
v -0.423960 0.299660 0.594000
v -0.413500 0.295540 -0.594000
v -0.423960 0.299660 -0.594000
v -0.384560 0.301280 0.594000
v -0.387980 0.314400 0.594000
v -0.384560 0.301280 -0.594000
v -0.387980 0.314400 -0.594000
v -0.406920 0.304200 0.594000
v -0.403500 0.292960 0.594000
v -0.406920 0.304200 -0.594000
v -0.403500 0.292960 -0.594000
v -0.416680 0.305580 0.594000
v -0.413140 0.293360 0.594000
v -0.416680 0.305580 -0.594000
v -0.425280 0.287440 0.594000
v -0.413520 0.287440 0.594000
v -0.425280 0.287440 -0.594000
v -0.413520 0.287440 -0.594000
v 0.422760 0.017280 0.594000
v 0.422760 0.004180 0.594000
v -0.384560 0.017280 0.594000
v 0.422760 0.017280 -0.594000
v 0.422760 0.017280 0.594000
v -0.387980 0.004180 0.594000
v -0.384560 0.017280 -0.594000
v -0.387980 0.004180 -0.594000
v 0.422760 0.004180 -0.594000
v 0.422760 0.017280 -0.594000
v -0.406920 0.014380 0.594000
v -0.403500 0.025620 0.594000
v -0.384560 0.017280 -0.594000
v -0.384560 0.017280 0.594000
v -0.406920 0.014380 -0.594000
v -0.384560 0.017280 -0.594000
v -0.403500 0.025620 -0.594000
v -0.416680 0.013000 0.594000
v -0.413140 0.025220 0.594000
v -0.416680 0.013000 -0.594000
v -0.413500 0.023040 -0.594000
v -0.423960 0.018920 0.594000
v -0.423960 0.018920 -0.594000
v -0.425280 0.031140 0.594000
v -0.413520 0.031020 0.594000
v -0.425280 0.031140 -0.594000
v -0.413520 0.031020 -0.594000
v 0.422760 0.314400 0.594000
v 0.422760 0.301280 0.594000
v -0.384560 0.301280 0.594000
v 0.422760 0.301280 0.594000
v 0.422760 0.301280 -0.594000
v -0.387980 0.314400 0.594000
v 0.422760 0.314400 -0.594000
v 0.422760 0.314400 0.594000
v -0.384560 0.301280 -0.594000
v 0.422760 0.301280 -0.594000
v 0.422760 0.314400 -0.594000
v -0.387980 0.314400 -0.594000
v -0.406920 0.304200 0.594000
v -0.403500 0.292960 0.594000
v -0.384560 0.301280 0.594000
v -0.384560 0.301280 -0.594000
v -0.406920 0.304200 -0.594000
v -0.403500 0.292960 -0.594000
v -0.384560 0.301280 -0.594000
v -0.416680 0.305580 0.594000
v -0.413140 0.293360 0.594000
v -0.416680 0.305580 -0.594000
v -0.413500 0.295540 -0.594000
v -0.423960 0.299660 0.594000
v -0.423960 0.299660 -0.594000
v -0.425280 0.287440 0.594000
v -0.413520 0.287440 0.594000
v -0.425280 0.287440 -0.594000
v -0.413520 0.287440 -0.594000
v -0.413520 0.031020 -0.594000
v -0.413520 0.031020 0.594000
v -0.413520 0.287440 0.594000
v -0.413520 0.287440 -0.594000
v -0.413520 0.031020 -0.594000
v -0.413520 0.287440 -0.594000
v -0.394240 0.159280 0.581600
v -0.394240 0.159280 -0.581600
v -0.396940 0.159280 0.587440
v -0.394240 0.159280 -0.587440
v -0.404120 0.159280 0.587440
v -0.404120 0.159280 -0.587440
v 0.366060 0.159280 0.581600
v 0.382040 0.293280 0.581600
v -0.384180 0.293280 0.581600
v 0.382040 0.293280 -0.581600
v -0.384180 0.293280 -0.581600
v 0.366060 0.159280 -0.581600
v -0.386880 0.293280 0.587440
v -0.386880 0.293280 -0.587440
v -0.394060 0.293280 0.587440
v -0.394060 0.293280 -0.587440
v -0.394240 0.159280 0.581600
v -0.394240 0.159280 -0.581600
v -0.396940 0.159280 0.587440
v -0.394240 0.159280 -0.587440
v -0.404120 0.159280 0.587440
v -0.404120 0.159280 -0.587440
v 0.366060 0.159280 0.581600
v 0.382040 0.025280 0.581600
v -0.384180 0.025280 0.581600
v 0.382040 0.025280 -0.581600
v -0.384180 0.025280 -0.581600
v 0.366060 0.159280 -0.581600
v -0.386880 0.025280 0.587440
v -0.386880 0.025280 -0.587440
v -0.394060 0.025280 0.587440
v -0.394060 0.025280 -0.587440
v 0.371860 0.092280 0.581600
v -0.391080 0.092280 0.581600
v 0.371860 0.092280 -0.581600
v -0.393800 0.092280 0.587440
v -0.391080 0.092280 -0.581600
v -0.400980 0.092280 0.587440
v -0.392440 0.092280 -0.587440
v -0.400980 0.092280 -0.587440
v -0.391080 0.226280 0.581600
v 0.371860 0.226280 0.581600
v -0.393800 0.226280 0.587440
v 0.371860 0.226280 -0.581600
v -0.400980 0.226280 0.587440
v -0.391080 0.226280 -0.581600
v -0.400980 0.226280 -0.587440
v -0.392440 0.226280 -0.587440
v 0.368020 0.125780 0.581600
v -0.392980 0.125780 0.581600
v 0.368020 0.125780 -0.581600
v -0.395680 0.125780 0.587440
v -0.392980 0.125780 -0.581600
v -0.402860 0.125780 0.587440
v -0.393660 0.125780 -0.587440
v -0.402860 0.125780 -0.587440
v 0.368020 0.192780 0.581600
v -0.392980 0.192780 0.581600
v 0.368020 0.192780 -0.581600
v -0.395680 0.192780 0.587440
v -0.392980 0.192780 -0.581600
v -0.402860 0.192780 0.587440
v -0.393660 0.192780 -0.587440
v -0.402860 0.192780 -0.587440
v 0.382040 0.025280 0.581600
v -0.384180 0.025280 0.581600
v 0.371860 0.092280 0.581600
v 0.382040 0.025280 -0.581600
v 0.382040 0.025280 0.581600
v -0.391080 0.092280 0.581600
v -0.384180 0.025280 0.581600
v -0.386880 0.025280 0.587440
v 0.371860 0.092280 -0.581600
v -0.384180 0.025280 -0.581600
v 0.382040 0.025280 -0.581600
v -0.393800 0.092280 0.587440
v -0.386880 0.025280 0.587440
v -0.394060 0.025280 0.587440
v -0.391080 0.092280 -0.581600
v -0.386880 0.025280 -0.587440
v -0.384180 0.025280 -0.581600
v -0.400980 0.092280 0.587440
v -0.394060 0.025280 0.587440
v -0.394060 0.025280 -0.587440
v -0.392440 0.092280 -0.587440
v -0.400980 0.092280 -0.587440
v -0.394060 0.025280 -0.587440
v -0.386880 0.025280 -0.587440
v -0.384180 0.293280 0.581600
v 0.382040 0.293280 0.581600
v -0.391080 0.226280 0.581600
v -0.386880 0.293280 0.587440
v -0.384180 0.293280 0.581600
v 0.371860 0.226280 0.581600
v 0.382040 0.293280 0.581600
v 0.382040 0.293280 -0.581600
v -0.393800 0.226280 0.587440
v -0.394060 0.293280 0.587440
v -0.386880 0.293280 0.587440
v 0.371860 0.226280 -0.581600
v 0.382040 0.293280 -0.581600
v -0.384180 0.293280 -0.581600
v -0.400980 0.226280 0.587440
v -0.394060 0.293280 -0.587440
v -0.394060 0.293280 0.587440
v -0.391080 0.226280 -0.581600
v -0.384180 0.293280 -0.581600
v -0.386880 0.293280 -0.587440
v -0.400980 0.226280 -0.587440
v -0.392440 0.226280 -0.587440
v -0.386880 0.293280 -0.587440
v -0.394060 0.293280 -0.587440
v 0.368020 0.125780 0.581600
v 0.366060 0.159280 0.581600
v -0.392980 0.125780 0.581600
v -0.394240 0.159280 0.581600
v 0.368020 0.125780 -0.581600
v 0.366060 0.159280 -0.581600
v -0.395680 0.125780 0.587440
v -0.396940 0.159280 0.587440
v -0.392980 0.125780 -0.581600
v -0.394240 0.159280 -0.581600
v -0.402860 0.125780 0.587440
v -0.404120 0.159280 0.587440
v -0.393660 0.125780 -0.587440
v -0.394240 0.159280 -0.587440
v -0.404120 0.159280 -0.587440
v -0.402860 0.125780 -0.587440
v 0.368020 0.192780 0.581600
v 0.366060 0.159280 0.581600
v -0.392980 0.192780 0.581600
v -0.394240 0.159280 0.581600
v 0.368020 0.192780 -0.581600
v 0.366060 0.159280 -0.581600
v -0.395680 0.192780 0.587440
v -0.396940 0.159280 0.587440
v -0.392980 0.192780 -0.581600
v -0.394240 0.159280 -0.581600
v -0.402860 0.192780 0.587440
v -0.404120 0.159280 0.587440
v -0.393660 0.192780 -0.587440
v -0.402860 0.192780 -0.587440
v -0.404120 0.159280 -0.587440
v -0.394240 0.159280 -0.587440
vt 0.141190 0.474670
vt 0.141190 0.983300
vt 0.135930 0.474670
vt 0.135930 0.983300
vt 0.486740 0.463400
vt 0.141950 0.463420
vt 0.489190 0.467800
vt 0.141950 0.468450
vt 0.142210 0.474780
vt 0.140700 0.983410
vt 0.489340 0.474780
vt 0.489340 0.983410
vt 0.486330 0.474670
vt 0.486330 0.983300
vt 0.494860 0.459950
vt 0.497310 0.464350
vt 0.494440 0.474670
vt 0.494440 0.983300
vt 0.631780 0.474780
vt 0.633110 0.983410
vt 0.623670 0.474780
vt 0.625000 0.983410
vt 0.497330 0.456540
vt 0.500050 0.461250
vt 0.497850 0.474670
vt 0.497850 0.983300
vt 0.501830 0.983300
vt 0.501830 0.474670
vt 0.620570 0.474780
vt 0.621140 0.983410
vt 0.499480 0.460490
vt 0.501320 0.456040
vt 0.504070 0.458200
vt 0.502840 0.463240
vt 0.504590 0.474670
vt 0.504590 0.983300
vt 0.617780 0.474780
vt 0.617780 0.983410
vt 0.135440 0.983410
vt 0.135440 0.474780
vt 0.140700 0.474780
vt 0.487830 0.474780
vt 0.979460 0.474670
vt 0.979460 0.983300
vt 0.630830 0.474670
vt 0.632340 0.983300
vt 0.624230 0.474670
vt 0.624230 0.983300
vt 0.490830 0.983410
vt 0.500270 0.474780
vt 0.498940 0.983410
vt 0.492160 0.474780
vt 0.620820 0.474670
vt 0.620820 0.983300
vt 0.616840 0.983300
vt 0.616840 0.474670
vt 0.503370 0.474780
vt 0.502800 0.983410
vt 0.614080 0.474670
vt 0.614080 0.983300
vt 0.506160 0.474780
vt 0.506160 0.983410
vt 0.010380 0.983410
vt 0.010380 0.474780
vt 0.122340 0.983410
vt 0.122340 0.474780
vt 0.207880 0.016970
vt 0.207880 0.209170
vt 0.208020 0.208210
vt 0.208020 0.017930
vt 0.207350 0.016970
vt 0.207350 0.209170
vt 0.339260 0.017930
vt 0.339260 0.208210
vt 0.018660 0.314800
vt 0.018660 0.238330
vt 0.410640 0.314800
vt 0.410640 0.238330
vt 0.018590 0.238290
vt 0.410320 0.238290
vt 0.018590 0.314850
vt 0.410310 0.314850
vt 0.388500 0.017570
vt 0.382690 0.113750
vt 0.388500 0.113750
vt 0.382690 0.017570
vt 0.351630 0.018810
vt 0.363820 0.113440
vt 0.357240 0.113420
vt 0.358290 0.017590
vt 0.197870 0.017810
vt 0.102030 0.208900
vt 0.102030 0.017810
vt 0.197870 0.208900
vt 0.410650 0.356810
vt 0.410650 0.424660
vt 0.016510 0.356810
vt 0.016510 0.424660
vt 0.410330 0.424690
vt 0.410320 0.356780
vt 0.410640 0.353050
vt 0.018660 0.353050
vt 0.410640 0.391290
vt 0.018660 0.391290
vt 0.018590 0.353120
vt 0.410310 0.353120
vt 0.410310 0.391400
vt 0.018590 0.391400
vt 0.382690 0.161840
vt 0.388500 0.161840
vt 0.382690 0.209930
vt 0.388500 0.209930
vt 0.366590 0.161370
vt 0.360040 0.160720
vt 0.369360 0.209300
vt 0.362840 0.208020
vt 0.054110 0.208900
vt 0.054110 0.017810
vt 0.006190 0.208900
vt 0.006190 0.017810
vt 0.410650 0.322890
vt 0.016510 0.322890
vt 0.016510 0.288970
vt 0.410650 0.288970
vt 0.016450 0.322820
vt 0.410320 0.322820
vt 0.016450 0.288870
vt 0.410320 0.288870
vn 0.707100 -0.707100 0.000000
vn 1.000000 0.000000 0.000000
vn 0.000000 0.000000 1.000000
vn 0.000000 1.000000 0.000000
vn -0.244500 -0.969600 0.000000
vn 0.000000 0.000000 -1.000000
vn -0.175800 -0.984400 0.000000
vn 0.403000 0.915200 0.000000
vn 0.185600 0.982600 0.000000
vn 0.081600 0.996600 -0.000900
vn -0.267800 -0.963400 0.000000
vn -0.878600 -0.477500 0.000000
vn 0.668200 0.743900 -0.000300
vn 0.611000 0.791600 -0.001400
vn -0.998500 -0.053800 0.000000
vn -0.998500 -0.053700 0.000000
vn 0.997900 0.065100 -0.000400
vn 1.000000 0.002500 0.000000
vn 0.000000 -1.000000 0.000000
vn -0.244500 0.969600 0.000000
vn -0.175800 0.984400 0.000000
vn 0.402200 -0.915600 0.000000
vn 0.185100 -0.982700 0.000000
vn 0.081100 -0.996700 -0.000900
vn -0.267800 0.963400 0.000000
vn -0.878600 0.477500 0.000000
vn 0.668700 -0.743500 -0.000300
vn 0.611000 -0.791600 -0.001400
vn -0.998500 0.053800 0.000000
vn -0.998500 0.053700 0.000000
vn 0.998000 -0.063800 -0.000400
vn 1.000000 -0.002400 0.000000
vn 0.988600 0.150200 0.000000
vn 0.991200 0.132100 0.000000
vn 0.903700 0.093100 0.418000
vn 0.904100 0.072700 0.421000
vn 0.904200 0.071800 0.420900
vn 0.903700 0.093100 0.417800
vn 0.903700 0.093100 -0.417800
vn 0.908400 0.092500 -0.407600
vn 0.970200 0.068400 -0.232200
vn 0.973100 0.066700 -0.220200
vn -0.994700 -0.102700 0.000000
vn -0.996800 -0.079400 0.000000
vn 0.903700 -0.093100 0.417800
vn 0.903700 -0.093100 0.418000
vn 0.904100 -0.072700 0.421000
vn 0.904200 -0.071800 0.420900
vn 0.988600 -0.150200 0.000000
vn 0.991200 -0.132100 0.000000
vn -0.994700 0.102700 0.000000
vn -0.996800 0.079400 0.000000
vn 0.908400 -0.092500 -0.407600
vn 0.970200 -0.068400 -0.232200
vn 0.973100 -0.066700 -0.220200
vn 0.903700 -0.093100 -0.417800
vn 0.996300 0.086200 0.000000
vn 0.998300 0.058400 0.000000
vn 0.906800 0.042600 0.419400
vn 0.906900 0.042400 0.419300
vn 0.907100 0.034100 0.419400
vn 0.992900 0.028900 -0.115600
vn 0.992900 0.026600 -0.115600
vn 0.999300 0.035300 -0.012800
vn 0.999300 0.037600 0.000000
vn -0.998900 -0.046800 0.000000
vn -0.999300 -0.037600 0.000000
vn 0.996300 -0.086200 0.000000
vn 0.998300 -0.058400 0.000000
vn 0.906800 -0.042600 0.419400
vn 0.906900 -0.042400 0.419300
vn 0.907100 -0.034100 0.419400
vn 0.992900 -0.028900 -0.115600
vn 0.992900 -0.026600 -0.115600
vn 0.999300 -0.037600 0.000000
vn 0.999300 -0.035300 -0.012800
vn -0.998900 0.046800 0.000000
vn -0.999300 0.037600 0.000000
usemtl Material0
s 1
f 2/1/1 4/2/1 1/3/2
f 4/2/1 3/4/2 1/3/2
f 9/5/3 46/6/3 8/7/3
f 46/6/3 45/8/3 8/7/3
f 49/9/4 48/10/4 47/11/4
f 47/11/4 48/10/4 10/12/4
f 50/13/5 11/14/5 4/2/1
f 50/13/5 4/2/1 2/1/1
f 54/8/6 53/6/6 51/7/6
f 53/6/6 52/5/6 51/7/6
f 12/15/3 9/5/3 8/7/3
f 13/16/3 12/15/3 8/7/3
f 55/17/7 14/18/7 11/14/5
f 50/13/5 55/17/7 11/14/5
f 58/19/8 57/20/8 56/21/9
f 56/21/9 57/20/8 15/22/10
f 61/16/6 60/7/6 59/15/6
f 59/15/6 60/7/6 52/5/6
f 13/16/3 16/23/3 12/15/3
f 17/24/3 16/23/3 13/16/3
f 62/25/11 18/26/11 14/18/7
f 55/17/7 62/25/11 14/18/7
f 7/27/12 62/25/11 5/28/12
f 18/26/11 62/25/11 7/27/12
f 63/29/13 56/21/9 15/22/10
f 63/29/13 15/22/10 6/30/14
f 64/23/6 65/31/6 61/16/6
f 64/23/6 61/16/6 59/15/6
f 17/24/3 66/32/3 16/23/3
f 67/32/6 65/31/6 64/23/6
f 19/33/3 66/32/3 17/24/3
f 20/34/3 19/33/3 17/24/3
f 68/35/15 21/36/16 7/27/12
f 68/35/15 7/27/12 5/28/12
f 69/37/17 63/29/13 6/30/14
f 22/38/18 69/37/17 6/30/14
f 70/33/6 71/34/6 65/31/6
f 67/32/6 70/33/6 65/31/6
f 25/39/2 26/10/2 23/40/2
f 26/10/2 24/41/2 23/40/2
f 73/8/3 72/6/3 30/7/3
f 72/6/3 31/5/3 30/7/3
f 76/10/19 74/42/19 32/12/19
f 76/10/19 75/41/19 74/42/19
f 79/43/4 78/44/4 77/45/20
f 77/45/20 78/44/4 33/46/20
f 83/5/6 82/6/6 80/7/6
f 82/6/6 81/8/6 80/7/6
f 34/15/3 35/16/3 30/7/3
f 31/5/3 34/15/3 30/7/3
f 84/47/21 77/45/20 33/46/20
f 36/48/21 84/47/21 33/46/20
f 87/49/22 85/50/23 37/51/24
f 87/49/22 86/52/22 85/50/23
f 90/7/6 88/15/6 83/5/6
f 90/7/6 89/16/6 88/15/6
f 38/23/3 39/24/3 35/16/3
f 38/23/3 35/16/3 34/15/3
f 91/53/25 84/47/21 36/48/21
f 40/54/25 91/53/25 36/48/21
f 91/53/25 40/54/25 29/55/26
f 91/53/25 29/55/26 27/56/26
f 37/51/24 92/57/27 28/58/28
f 85/50/23 92/57/27 37/51/24
f 89/16/6 93/23/6 88/15/6
f 94/31/6 93/23/6 89/16/6
f 95/32/3 39/24/3 38/23/3
f 94/31/6 96/32/6 93/23/6
f 41/33/3 42/34/3 39/24/3
f 95/32/3 41/33/3 39/24/3
f 29/55/26 97/59/29 27/56/26
f 43/60/30 97/59/29 29/55/26
f 98/61/31 44/62/32 28/58/28
f 92/57/27 98/61/31 28/58/28
f 99/33/6 96/32/6 94/31/6
f 100/34/6 99/33/6 94/31/6
f 42/34/3 41/33/3 20/34/3
f 20/34/3 41/33/3 19/33/3
f 68/35/15 97/59/29 43/60/30
f 68/35/15 43/60/30 21/36/16
f 104/63/2 103/64/2 101/65/2
f 103/64/2 102/66/2 101/65/2
f 99/33/6 106/34/6 70/33/6
f 106/34/6 105/34/6 70/33/6
usemtl Material1
f 120/67/4 119/68/4 115/69/4
f 117/70/4 120/67/4 115/69/4
f 122/71/4 121/72/4 119/68/4
f 120/67/4 122/71/4 119/68/4
f 116/73/4 117/70/4 115/69/4
f 116/73/4 115/69/4 114/74/4
f 136/67/19 133/70/19 131/69/19
f 135/68/19 136/67/19 131/69/19
f 138/71/19 136/67/19 135/68/19
f 137/72/19 138/71/19 135/68/19
f 131/69/19 132/73/19 130/74/19
f 133/70/19 132/73/19 131/69/19
f 140/75/3 172/76/3 139/77/3
f 172/76/3 171/78/3 139/77/3
f 175/79/33 174/80/33 173/81/34
f 173/81/34 174/80/33 141/82/34
f 178/83/35 176/84/36 142/85/37
f 178/83/35 177/86/38 176/84/36
f 181/78/6 180/76/6 179/77/6
f 179/77/6 180/76/6 143/75/6
f 184/87/3 182/88/3 144/89/3
f 184/87/3 183/90/3 182/88/3
f 187/83/39 186/86/40 185/85/41
f 185/85/41 186/86/40 145/84/42
f 190/91/43 188/92/44 146/93/44
f 190/91/43 189/94/43 188/92/44
f 194/90/6 193/87/6 191/88/6
f 193/87/6 192/89/6 191/88/6
f 148/95/3 196/96/3 147/97/3
f 196/96/3 195/98/3 147/97/3
f 199/86/45 198/83/46 197/84/47
f 197/84/47 198/83/46 149/85/48
f 202/99/49 200/97/50 150/100/50
f 202/99/49 201/98/49 200/97/50
f 205/90/3 204/87/3 203/88/3
f 203/88/3 204/87/3 151/89/3
f 208/98/6 206/95/6 152/97/6
f 208/98/6 207/96/6 206/95/6
f 211/94/51 210/91/51 209/92/52
f 209/92/52 210/91/51 153/93/52
f 214/86/53 212/85/54 154/84/55
f 214/86/53 213/83/56 212/85/54
f 218/87/6 217/90/6 215/89/6
f 217/90/6 216/88/6 215/89/6
f 155/101/3 156/102/3 140/75/3
f 155/101/3 140/75/3 139/77/3
f 155/101/3 129/103/3 123/104/3
f 156/102/3 155/101/3 123/104/3
f 219/105/57 157/106/57 134/107/58
f 220/108/58 219/105/57 134/107/58
f 219/105/57 173/81/34 141/82/34
f 157/106/57 219/105/57 141/82/34
f 221/109/59 158/110/60 142/85/37
f 176/84/36 221/109/59 142/85/37
f 221/109/59 222/111/61 125/112/61
f 158/110/60 221/109/59 125/112/61
f 223/101/6 159/102/6 124/104/6
f 224/103/6 223/101/6 124/104/6
f 223/101/6 179/77/6 143/75/6
f 159/102/6 223/101/6 143/75/6
f 225/113/3 160/114/3 144/89/3
f 182/88/3 225/113/3 144/89/3
f 225/113/3 226/115/3 127/116/3
f 160/114/3 225/113/3 127/116/3
f 227/110/62 161/109/63 126/111/64
f 228/112/65 227/110/62 126/111/64
f 227/110/62 185/85/41 145/84/42
f 161/109/63 227/110/62 145/84/42
f 229/117/66 162/118/66 146/93/44
f 188/92/44 229/117/66 146/93/44
f 229/117/66 230/119/67 128/120/67
f 162/118/66 229/117/66 128/120/67
f 234/114/6 233/116/6 231/113/6
f 233/116/6 232/115/6 231/113/6
f 192/89/6 231/113/6 191/88/6
f 234/114/6 231/113/6 192/89/6
f 163/121/3 164/122/3 107/123/3
f 113/124/3 163/121/3 107/123/3
f 163/121/3 148/95/3 147/97/3
f 164/122/3 163/121/3 147/97/3
f 235/125/68 165/126/68 150/100/50
f 200/97/50 235/125/68 150/100/50
f 235/125/68 236/127/69 118/128/69
f 165/126/68 235/125/68 118/128/69
f 237/109/70 166/110/71 109/112/72
f 238/111/72 237/109/70 109/112/72
f 237/109/70 197/84/47 149/85/48
f 166/110/71 237/109/70 149/85/48
f 239/121/6 167/122/6 152/97/6
f 206/95/6 239/121/6 152/97/6
f 239/121/6 240/124/6 108/123/6
f 167/122/6 239/121/6 108/123/6
f 241/113/3 168/114/3 111/116/3
f 242/115/3 241/113/3 111/116/3
f 241/113/3 203/88/3 151/89/3
f 168/114/3 241/113/3 151/89/3
f 243/110/73 169/109/74 154/84/55
f 212/85/54 243/110/73 154/84/55
f 243/110/73 244/112/75 110/111/76
f 169/109/74 243/110/73 110/111/76
f 245/117/77 170/118/77 112/120/78
f 246/119/78 245/117/77 112/120/78
f 245/117/77 209/92/52 153/93/52
f 170/118/77 245/117/77 153/93/52
f 247/113/6 248/114/6 215/89/6
f 216/88/6 247/113/6 215/89/6
f 250/115/6 249/116/6 247/113/6
f 249/116/6 248/114/6 247/113/6
