# Blender v2.74 (sub 0) OBJ File: 'water-v2.blend'
# www.blender.org
v -2.480167 -1.597453 16.062004
v -2.480167 -1.597460 44.059582
v 24.834524 -1.597460 44.059582
v 24.834524 -1.597432 -67.930786
v 52.149284 -1.597432 -67.930786
v 52.149284 -1.597453 16.062004
v 52.149284 -1.597460 44.059582
v 52.149284 -1.597439 -39.933224
v 52.149284 -1.597446 -11.935614
v -2.480167 -1.597446 -11.935614
v 24.834524 -1.597446 -11.935614
v -57.109604 -1.597453 16.062004
v -57.109604 -1.597460 44.059582
v -29.794914 -1.597460 44.059582
v -57.109604 -1.597446 -11.935614
v -29.794914 -1.597446 -11.935614
v -29.794914 -1.597453 16.062004
v 24.834524 -1.597439 -39.933224
v 24.834524 -1.597453 16.062004
vt 0.443659 0.227435
vt 0.443659 0.000123
vt 0.665427 0.000123
vt 0.000123 0.227435
vt 0.000123 0.000123
vt 0.221891 0.000123
vt 0.221891 0.227435
vt 0.221891 0.454747
vt 0.000123 0.454747
vt 0.665427 0.682060
vt 0.665427 0.454747
vt 0.887195 0.454747
vt 0.000123 0.682305
vt 0.158860 0.845011
vt 0.000123 0.999877
vt 0.665427 0.227435
vt 0.887195 0.000123
vt 0.887195 0.227435
vt 0.443659 0.454747
vt 0.887195 0.682060
vt 0.159106 0.837172
vt 0.317843 0.682305
vt 0.317843 0.999877
vn 0.000000 1.000000 0.000000
s 1
f 1/1/1 2/2/1 3/3/1
f 12/4/1 13/5/1 14/6/1
f 17/7/1 14/6/1 2/2/1
f 16/8/1 17/7/1 1/1/1
f 15/9/1 12/4/1 17/7/1
f 18/10/1 11/11/1 9/12/1
f 4/13/1 18/14/1 8/15/1
f 19/16/1 3/3/1 7/17/1
f 11/11/1 19/16/1 6/18/1
f 10/19/1 1/1/1 19/16/1
f 19/16/1 1/1/1 3/3/1
f 17/7/1 12/4/1 14/6/1
f 1/1/1 17/7/1 2/2/1
f 10/19/1 16/8/1 1/1/1
f 16/8/1 15/9/1 17/7/1
f 8/20/1 18/10/1 9/12/1
f 5/21/1 4/22/1 8/23/1
f 6/18/1 19/16/1 7/17/1
f 9/12/1 11/11/1 6/18/1
f 11/11/1 10/19/1 19/16/1
